<?xml version="1.0" encoding="UTF-8"?>
<svg version="1.1" xmlns="http://www.w3.org/2000/svg" width="500" height="500">
<path d="M0 0 C165 0 330 0 500 0 C500 165 500 330 500 500 C335 500 170 500 0 500 C0 335 0 170 0 0 Z " fill="#000000" transform="translate(0,0)"/>
<path d="M0 0 C0.01030746 0.94547195 0.02061493 1.89094391 0.03123474 2.86506653 C0.12891514 11.76746372 0.23164417 20.66979019 0.33933926 29.57207203 C0.3945458 34.14901633 0.44796222 38.72596705 0.49731445 43.30297852 C0.5449914 47.71855456 0.5973355 52.13405268 0.65294075 56.54953575 C0.67334919 58.23564404 0.69206478 59.92177369 0.70907402 61.60791969 C0.73315145 63.96631221 0.76320145 66.3245576 0.79467773 68.68286133 C0.80331093 69.73266678 0.80331093 69.73266678 0.81211853 70.80368042 C0.85779654 73.80693883 1.04208292 76.12624875 2 79 C4.97 79.495 4.97 79.495 8 80 C10.62202981 76.06695528 10.25148527 72.73374931 10.1953125 68.17578125 C10.1924826 67.31438034 10.18965271 66.45297943 10.18673706 65.56547546 C10.17554237 62.81434231 10.15043921 60.06353475 10.125 57.3125 C10.11496927 55.44727033 10.10584359 53.58203555 10.09765625 51.71679688 C10.07560538 47.1444058 10.04108049 42.57225811 10 38 C7.03 37.505 7.03 37.505 4 37 C5 34 5 34 7.8359375 32.39453125 C9.58777344 31.61142578 9.58777344 31.61142578 11.375 30.8125 C12.53773438 30.28269531 13.70046875 29.75289062 14.8984375 29.20703125 C18 28 18 28 21 28 C21.00808685 28.6072139 21.01617371 29.2144278 21.02450562 29.84004211 C21.11045023 36.15033191 21.20994926 42.4603039 21.31738281 48.77026367 C21.35570602 51.12632924 21.39055294 53.482454 21.421875 55.83862305 C21.46745274 59.22205787 21.52545952 62.60508408 21.5859375 65.98828125 C21.59748871 67.04461258 21.60903992 68.10094391 21.62094116 69.18928528 C21.64081085 70.17007553 21.66068054 71.15086578 21.68115234 72.16137695 C21.69447601 73.02519485 21.70779968 73.88901276 21.7215271 74.77900696 C21.8678214 77.28584887 21.8678214 77.28584887 24 80 C26.75641416 79.50243908 26.75641416 79.50243908 29 78 C29.08871273 74.97022196 29.1151935 71.96332978 29.09765625 68.93359375 C29.0962413 68.02497086 29.09482635 67.11634796 29.09336853 66.18019104 C29.08775193 63.26592779 29.07519665 60.35174019 29.0625 57.4375 C29.05748714 55.46679798 29.05292386 53.49609476 29.04882812 51.52539062 C29.03777711 46.68356441 29.02050138 41.84179505 29 37 C27.02 36.505 27.02 36.505 25 36 C25 35.34 25 34.68 25 34 C26.93370231 32.99267601 28.87210306 31.99436712 30.8125 31 C31.89144531 30.443125 32.97039062 29.88625 34.08203125 29.3125 C37 28 37 28 40 28 C40.495 32.455 40.495 32.455 41 37 C41.7734375 35.88625 41.7734375 35.88625 42.5625 34.75 C46.13874952 30.71525695 49.64082665 28.33028427 55.125 27.5625 C58.53534871 28.08146611 60.31619602 28.82394272 63 31 C66.19430627 36.04973375 66.44057931 40.19609721 66.44140625 45.9765625 C66.46121803 47.24806656 66.46121803 47.24806656 66.48143005 48.54525757 C66.52213773 51.23853915 66.54394893 53.93148141 66.5625 56.625 C66.58631995 59.32555673 66.61446274 62.02579555 66.65428162 64.72616577 C66.67855939 66.40218009 66.69348235 68.07836277 66.69789124 69.75454712 C66.67808959 75.22618244 66.67808959 75.22618244 69 80 C70.485 80.495 70.485 80.495 72 81 C72 81.66 72 82.32 72 83 C64.74 83 57.48 83 50 83 C50 82.34 50 81.68 50 81 C50.804375 80.525625 51.60875 80.05125 52.4375 79.5625 C55.2918076 78.20016328 55.2918076 78.20016328 56 75 C56.12058414 72.38825722 56.18807104 69.80396377 56.203125 67.19140625 C56.20882507 66.42827621 56.21452515 65.66514618 56.22039795 64.87889099 C56.22983641 63.26587303 56.23637735 61.65283589 56.24023438 60.03979492 C56.24995066 57.57501618 56.28098799 55.11106785 56.3125 52.64648438 C56.31902943 51.07812994 56.32428014 49.50976956 56.328125 47.94140625 C56.3466452 46.83811729 56.3466452 46.83811729 56.36553955 45.71253967 C56.35181693 42.55410244 56.18321801 40.33533419 54.65527344 37.53881836 C53.01925074 35.74839241 53.01925074 35.74839241 50.1875 35.4375 C46.14241781 36.15133803 43.53555055 37.82537501 41 41 C40.43342062 43.95416817 40.24410489 46.0693538 40.34375 49.00390625 C40.34749634 49.76420639 40.35124268 50.52450653 40.35510254 51.30784607 C40.36850245 52.90910487 40.39625183 54.51030046 40.4375 56.11108398 C40.49989548 58.55840062 40.51945343 61.00313802 40.53125 63.45117188 C40.54958983 65.01044799 40.57034135 66.56969799 40.59375 68.12890625 C40.60224976 68.85815811 40.61074951 69.58740997 40.61950684 70.33876038 C40.72204059 73.99018184 40.83930944 76.96617324 43 80 C45.05000871 80.80528889 45.05000871 80.80528889 47 81 C47 81.66 47 82.32 47 83 C45.02 83 43.04 83 41 83 C40.89333008 83.63744141 40.78666016 84.27488281 40.67675781 84.93164062 C39.35386109 92.54170631 37.60641587 100.00452345 35.75 107.5 C33.2942558 117.54104947 30.92378623 127.59467613 28.6875 137.6875 C28.32446777 139.32332031 28.32446777 139.32332031 27.95410156 140.9921875 C26.56209147 147.31415155 25.24198755 153.64685797 24 160 C24.7425 159.21625 25.485 158.4325 26.25 157.625 C28.54433318 155.43495469 30.12158858 154.17268614 33 153 C30.4038493 157.99259749 27.71961086 162.7334713 23 166 C19.75 166.5 19.75 166.5 17 166 C16.34 165.34 15.68 164.68 15 164 C15.0234375 160.7421875 15.0234375 160.7421875 15.375 156.875 C15.48585938 155.59367188 15.59671875 154.31234375 15.7109375 152.9921875 C15.80632812 152.00476563 15.90171875 151.01734375 16 150 C15.62488281 150.66386719 15.24976563 151.32773437 14.86328125 152.01171875 C11.98258834 156.98218384 9.30666014 161.18552959 5 165 C4.67 165.33 4.34 165.66 4 166 C-2.32107023 166.46822742 -2.32107023 166.46822742 -4.8125 164.75 C-6.06642645 162.90210838 -7.01899195 161.00340885 -8 159 C-8.43570313 159.5053125 -8.87140625 160.010625 -9.3203125 160.53125 C-14.21042831 165.86592179 -14.21042831 165.86592179 -18.3125 166.5625 C-21 166 -21 166 -23 164 C-24.15665214 156.45922894 -22.07626573 149.19277769 -20 142 C-20.40089844 142.75023437 -20.80179688 143.50046875 -21.21484375 144.2734375 C-25.81310354 152.55239051 -30.99101377 160.66067584 -39 166 C-45.20516269 166.55403238 -45.20516269 166.55403238 -47.71484375 164.8046875 C-50.31196253 161.15766964 -49.04513752 156.55546043 -48.42626953 152.33349609 C-47.14089193 145.2970476 -45.20213716 138.38722612 -43.375 131.4765625 C-42.28929961 127.31707945 -41.48111056 123.26985619 -41 119 C-41.66 119 -42.32 119 -43 119 C-43.66 120.65 -44.32 122.3 -45 124 C-45.99 124 -46.98 124 -48 124 C-45.32391533 118.750757 -42.97930762 115.25179273 -38 112 C-34.51856674 112.07912348 -33.46645256 112.53354744 -31 115 C-31.48535489 123.49371052 -33.9220951 131.82738395 -35.828125 140.08984375 C-37.18534038 146.05759961 -38.39675831 151.90725891 -39 158 C-34.16082659 157.28308542 -31.06256159 154.38898411 -28.15625 150.58984375 C-20.41459425 138.19223938 -16.43428607 126.10249386 -13 112 C-10.03 112 -7.06 112 -4 112 C-5.42419385 121.41705035 -7.42289005 130.66439314 -9.5625 139.9375 C-10.03891279 142.01645811 -10.51433253 144.09564013 -10.98924255 146.17494202 C-11.41633856 148.04271775 -11.84590965 149.90992701 -12.27563477 151.77709961 C-12.89033119 154.51205329 -13.46538383 157.24846124 -14 160 C-10.83345613 157.66675715 -9.29752634 156.19010537 -8.328125 152.3125 C-8.02022257 150.23150425 -7.72914234 148.14796437 -7.453125 146.0625 C-6.82358015 141.80764517 -5.59042478 137.98356395 -4 134 C-3.74734375 133.34644531 -3.4946875 132.69289063 -3.234375 132.01953125 C0.28274234 124.01009585 7.07257566 115.87562968 15 112 C18.1875 111.5625 18.1875 111.5625 21 112 C22.67578125 113.52734375 22.67578125 113.52734375 24 115 C24.19335938 114.2265625 24.38671875 113.453125 24.5859375 112.65625 C24.84632813 111.6146875 25.10671875 110.573125 25.375 109.5 C25.64699219 108.40300781 25.91898437 107.30601562 26.19921875 106.17578125 C26.66330243 104.33529328 27.13888866 102.49747557 27.64453125 100.66796875 C28.85213555 96.26325377 29.1882855 92.51885203 29 88 C27.02 87.505 27.02 87.505 25 87 C25 86.34 25 85.68 25 85 C25.66 84.67 26.32 84.34 27 84 C5.22 83.505 5.22 83.505 -17 83 C-17 82.34 -17 81.68 -17 81 C-16.030625 80.566875 -15.06125 80.13375 -14.0625 79.6875 C-10.72268235 78.2985139 -10.72268235 78.2985139 -10 75 C-9.91078114 72.92971727 -9.88240349 70.85662411 -9.88647461 68.78442383 C-9.88655014 67.5033223 -9.88662567 66.22222076 -9.88670349 64.90229797 C-9.89181013 63.50387534 -9.89702613 62.1054531 -9.90234375 60.70703125 C-9.90420911 59.27642364 -9.90563246 57.84581539 -9.90663147 56.41520691 C-9.91044733 52.65213249 -9.92026968 48.88909675 -9.93133545 45.1260376 C-9.94156957 41.28520226 -9.94613338 37.44436067 -9.95117188 33.60351562 C-9.96189278 26.0689928 -9.97895804 18.53450182 -10 11 C-12.31 10.34 -14.62 9.68 -17 9 C-16 6 -16 6 -13.1640625 4.39453125 C-11.99617188 3.87246094 -10.82828125 3.35039062 -9.625 2.8125 C-8.46226562 2.28269531 -7.29953125 1.75289062 -6.1015625 1.20703125 C-3 0 -3 0 0 0 Z " fill="#F5F5F5" transform="translate(250,152)"/>
<path d="M0 0 C0.9178125 0.49113281 1.835625 0.98226562 2.78125 1.48828125 C6.47499926 3.22308825 9.31518999 3.49599953 13.375 3.6875 C15.24285156 3.78611328 15.24285156 3.78611328 17.1484375 3.88671875 C18.08945312 3.92410156 19.03046875 3.96148437 20 4 C20.495 6.475 20.495 6.475 21 9 C18.03 9 15.06 9 12 9 C12.32097656 9.71542969 12.64195312 10.43085938 12.97265625 11.16796875 C14.86897926 16.39547514 15.11588152 22.11690698 13.08984375 27.3515625 C9.94640059 32.74898581 5.98184403 36.00605199 0 38 C-1.89470816 38.0685495 -3.7916834 38.08480372 -5.6875 38.0625 C-6.68136719 38.05347656 -7.67523438 38.04445312 -8.69921875 38.03515625 C-9.83810547 38.01775391 -9.83810547 38.01775391 -11 38 C-11.38133299 39.9914056 -11.71325582 41.99279077 -12 44 C-9.75914092 46.24085908 -3.87064257 45.40414442 -0.69726562 45.51757812 C6.26742197 45.84052514 13.2972517 46.63907483 19 51 C21.58103941 54.44138588 21.41774427 57.82255727 21 62 C18.70102407 69.52259846 13.80056989 73.24642636 7.1953125 77.03515625 C0.15500355 80.28336746 -8.78026742 80.40837622 -16.0546875 77.98046875 C-20.09291789 76.04328866 -22.48294726 74.77557911 -25 71 C-25.68778501 67.17897216 -25.58712828 64.89460194 -23.43359375 61.61328125 C-22.16509901 60.02189694 -20.86479623 58.45525121 -19.53125 56.91796875 C-17.79202722 55.14854473 -17.79202722 55.14854473 -18 53 C-18.66 52.34 -19.32 51.68 -20 51 C-20.82694187 45.93498103 -19.76381844 43.19519078 -17 39.0625 C-16.01531273 37.69715816 -15.02020087 36.33901364 -14 35 C-14.78375 34.113125 -15.5675 33.22625 -16.375 32.3125 C-20.77732808 27.33091823 -21.51919746 22.25815968 -21.37109375 15.78515625 C-20.65543175 10.41392457 -18.19251222 6.91669512 -14.16796875 3.3984375 C-9.35310472 -0.00140732 -5.82500243 -0.75161322 0 0 Z " fill="#F3F3F3" transform="translate(344,180)"/>
<path d="M0 0 C-1.542029 10.36428839 -3.81949971 20.53616816 -6.125 30.75 C-6.50160089 32.42962053 -6.87790511 34.10930761 -7.25390625 35.7890625 C-8.16585716 39.86014923 -9.08180115 43.9303181 -10 48 C-6.5334855 45.99266026 -4.01750088 44.5354919 -2 41 C-1.5717864 38.55909707 -1.5717864 38.55909707 -1.5625 35.9375 C-0.76219856 24.36390993 4.44217555 12.85732021 13.0625 5 C18.24585832 0.82778923 22.2378002 -0.69953791 29 0 C33.75836744 1.81131271 36.88767961 4.30595468 39 9 C42.06327972 19.62371476 38.62242275 30.24933807 33.75 39.8125 C30.01789914 46.05570577 25.09574175 51.8092966 18 54 C12.96410795 54.62225103 8.51736039 54.82190354 4 52.375 C1.78216147 49.74131675 0.36233987 47.15489234 -1 44 C-1.70576172 44.83144531 -1.70576172 44.83144531 -2.42578125 45.6796875 C-3.04839844 46.40414062 -3.67101562 47.12859375 -4.3125 47.875 C-4.92738281 48.59429687 -5.54226563 49.31359375 -6.17578125 50.0546875 C-9.02921485 53.09753532 -10.45938314 53.981674 -14.6875 54.125 C-15.780625 54.08375 -16.87375 54.0425 -18 54 C-21.84426438 46.31147124 -17.47513032 35.64958228 -15.5 27.8125 C-14.99580403 25.79595784 -14.49483569 23.77881372 -14.0020752 21.75944519 C-13.55644802 19.93518422 -13.09983879 18.11361612 -12.64257812 16.29223633 C-12.01955779 13.10020393 -11.87941305 10.24200474 -12 7 C-14.475 6.01 -14.475 6.01 -17 5 C-17 4.34 -17 3.68 -17 3 C-14.91798472 2.49453964 -12.83432933 1.99583165 -10.75 1.5 C-9.58984375 1.2215625 -8.4296875 0.943125 -7.234375 0.65625 C-4 0 -4 0 0 0 Z " fill="#F2F2F2" transform="translate(302,264)"/>
<path d="M0 0 C3.73403813 1.19465207 6.2591746 0.31514697 9.7421875 -1.28515625 C10.2990625 -1.59453125 10.8559375 -1.90390625 11.4296875 -2.22265625 C10.98015718 6.38042407 9.56866752 14.43666696 7.4296875 22.77734375 C6.7696875 22.77734375 6.1096875 22.77734375 5.4296875 22.77734375 C5.40390625 22.05289062 5.378125 21.3284375 5.3515625 20.58203125 C4.93008447 13.3977466 3.73443032 9.32688234 -1.2578125 3.96484375 C-4.91450681 2.08708181 -8.46625507 1.40102014 -12.5703125 1.77734375 C-15.70144572 3.42086389 -17.96936543 5.57544961 -19.5703125 8.77734375 C-20.42727725 13.90828458 -19.96805874 17.81316312 -17.1328125 22.21484375 C-13.99279402 26.48052923 -10.41398091 30.32745325 -6.82421875 34.21484375 C-0.26405337 41.67319469 3.88014779 47.71827868 3.7734375 57.7890625 C3.0628236 63.96655836 0.18870334 69.54173809 -4.4453125 73.71484375 C-11.04418341 78.07009855 -16.71702434 79.91637028 -24.5703125 78.77734375 C-27.0075513 77.88510577 -29.26918302 76.83456143 -31.5859375 75.66796875 C-34.0013017 74.58390765 -35.95261161 74.43957589 -38.5703125 74.77734375 C-39.2303125 76.09734375 -39.8903125 77.41734375 -40.5703125 78.77734375 C-41.5603125 78.77734375 -42.5503125 78.77734375 -43.5703125 78.77734375 C-42.94545559 68.99510114 -41.25687725 59.41940258 -39.5703125 49.77734375 C-38.5803125 49.77734375 -37.5903125 49.77734375 -36.5703125 49.77734375 C-36.42335937 51.29714844 -36.42335937 51.29714844 -36.2734375 52.84765625 C-36.12325327 54.1993143 -35.97216327 55.55087192 -35.8203125 56.90234375 C-35.7584375 57.5675 -35.6965625 58.23265625 -35.6328125 58.91796875 C-35.05578053 63.82274048 -33.70592746 66.97625655 -30.5703125 70.77734375 C-26.37196208 73.68583952 -21.47775937 73.53590809 -16.5703125 72.77734375 C-13.19847503 71.11206892 -11.15798369 68.73898751 -9.1953125 65.52734375 C-7.78786322 59.3345669 -7.72076227 54.63284157 -10.8828125 48.96484375 C-13.96786815 44.23442508 -17.70648478 40.25876475 -21.58862305 36.18847656 C-26.84111009 30.60346187 -31.11986856 24.37187193 -31.8828125 16.58984375 C-31.35968496 10.20768771 -28.92294098 5.71067037 -24.1953125 1.40234375 C-16.24095963 -4.8257453 -8.73162196 -4.14263853 0 0 Z " fill="#F3F3F3" transform="translate(175.5703125,240.22265625)"/>
<path d="M0 0 C5.77023157 2.29949638 8.85823185 5.48489314 11.30859375 11.1328125 C13.44624348 16.90567448 13 18.45134261 13 26 C4.75 26 -3.5 26 -12 26 C-11.4225 28.5575 -10.845 31.115 -10.25 33.75 C-10.07758789 34.54889648 -9.90517578 35.34779297 -9.72753906 36.17089844 C-8.70329903 40.46924193 -7.73280572 43.29908306 -4 46 C0.09887179 46.66543127 0.09887179 46.66543127 4 46 C7.11498544 43.02044871 9.32006384 39.9707582 11 36 C11.66 36 12.32 36 13 36 C12.12293806 43.37941771 10.31533704 48.67191635 5 54 C1.38752379 56.64914922 -1.19415645 57.21232956 -5.5625 56.9375 C-9.71728481 56.27524403 -12.09083293 55.15852424 -15 52 C-19.71259326 44.86378735 -21.34167821 38.05037454 -21.25 29.5625 C-21.25773438 28.85029297 -21.26546875 28.13808594 -21.2734375 27.40429688 C-21.24537017 19.67876498 -19.73388236 12.27621177 -15 6 C-10.22038944 1.25715568 -6.82654772 -0.66063365 0 0 Z " fill="#F2F2F2" transform="translate(223,180)"/>
<path d="M0 0 C0.9178125 0.49113281 1.835625 0.98226562 2.78125 1.48828125 C6.47499926 3.22308825 9.31518999 3.49599953 13.375 3.6875 C15.24285156 3.78611328 15.24285156 3.78611328 17.1484375 3.88671875 C18.08945312 3.92410156 19.03046875 3.96148437 20 4 C20.495 6.475 20.495 6.475 21 9 C18.03 9 15.06 9 12 9 C12.32097656 9.71542969 12.64195312 10.43085938 12.97265625 11.16796875 C14.86897926 16.39547514 15.11588152 22.11690698 13.08984375 27.3515625 C9.94640059 32.74898581 5.98184403 36.00605199 0 38 C-3.41000241 38.12629639 -6.33222291 38.19079345 -9.625 37.25 C-12.23831122 36.71461323 -12.23831122 36.71461323 -14.8125 38.9375 C-15.8953125 39.9584375 -15.8953125 39.9584375 -17 41 C-16.67 40.401875 -16.34 39.80375 -16 39.1875 C-14.79212012 36.94613529 -14.79212012 36.94613529 -15 34 C-16.32255312 32.32476605 -17.65705519 30.65893182 -19 29 C-21.51617186 23.69203321 -21.77022522 18.78074296 -21 13 C-18.96870039 7.39739223 -15.26857681 3.71751174 -10.11328125 0.84375 C-6.44585434 -0.62050917 -3.94043414 -0.50844311 0 0 Z " fill="#F2F2F2" transform="translate(344,180)"/>
<path d="M0 0 C9.57 0 19.14 0 29 0 C29 0.66 29 1.32 29 2 C27.865625 2.28875 26.73125 2.5775 25.5625 2.875 C24.386875 3.24625 23.21125 3.6175 22 4 C20.60243121 6.79513757 20.87275756 9.09523096 20.87060547 12.22216797 C20.86745331 13.53047577 20.86430115 14.83878357 20.86105347 16.18673706 C20.86284367 17.62188755 20.86489473 19.05703773 20.8671875 20.4921875 C20.86651403 21.95948299 20.86554364 23.42677838 20.86428833 24.89407349 C20.86281246 27.97252462 20.86496174 31.05094677 20.86962891 34.12939453 C20.87531611 38.07265478 20.87205291 42.01584681 20.86605644 45.95910454 C20.86243928 48.9908601 20.86359491 52.02259956 20.86618423 55.05435562 C20.86685083 56.50799696 20.86603443 57.96163976 20.86370468 59.41527939 C20.86116039 61.44986696 20.86572697 63.48445966 20.87060547 65.51904297 C20.87140106 66.67661102 20.87219666 67.83417908 20.87301636 69.02682495 C20.98042201 71.54160398 21.26230104 73.6081419 22 76 C25.465 76.495 25.465 76.495 29 77 C29 77.66 29 78.32 29 79 C19.43 79 9.86 79 0 79 C0 78.34 0 77.68 0 77 C1.134375 76.71125 2.26875 76.4225 3.4375 76.125 C4.613125 75.75375 5.78875 75.3825 7 75 C8.40846571 72.18306859 8.14285191 69.82075048 8.16113281 66.67016602 C8.16609772 66.02120361 8.17106262 65.37224121 8.17617798 64.70361328 C8.19080054 62.55370022 8.19760119 60.4038609 8.203125 58.25390625 C8.20887574 56.76179502 8.21463348 55.26968381 8.22039795 53.77757263 C8.23090776 50.64785416 8.23675076 47.51816138 8.24023438 44.38842773 C8.24572354 40.37544204 8.2697603 36.3627949 8.29820633 32.3499155 C8.31681582 29.26758323 8.32203736 26.18533285 8.32357025 23.10294914 C8.32660042 21.62334273 8.33464125 20.14373788 8.34775543 18.66418648 C8.36478383 16.59560371 8.36294438 14.52785266 8.35644531 12.45922852 C8.36191376 10.69289818 8.36191376 10.69289818 8.36749268 8.8908844 C8.23744434 6.01218498 8.23744434 6.01218498 6.64569092 4.13926697 C4.50459576 2.65704515 2.55637136 2.34545559 0 2 C0 1.34 0 0.68 0 0 Z " fill="#FDFDFD" transform="translate(137,156)"/>
<path d="M0 0 C7.92 0 15.84 0 24 0 C24 0.66 24 1.32 24 2 C22.07942708 2.65104167 20.15885417 3.30208333 18.23828125 3.953125 C12.69112855 6.5476048 9.29218216 10.86985995 5.6875 15.625 C4.7286913 16.87563425 3.76904906 18.12562987 2.80859375 19.375 C2.10259033 20.29539063 2.10259033 20.29539063 1.38232422 21.234375 C-1.2135242 24.5500189 -3.97644577 27.73267169 -6.734375 30.9140625 C-8.21960676 32.87000731 -8.21960676 32.87000731 -7.74584961 34.89941406 C-6.91420671 37.24162534 -5.8778674 38.75245279 -4.33203125 40.6953125 C-3.49623535 41.75685547 -3.49623535 41.75685547 -2.64355469 42.83984375 C-2.03930664 43.59394531 -1.43505859 44.34804687 -0.8125 45.125 C0.45727751 46.73157623 1.72680099 48.33835326 2.99609375 49.9453125 C3.65335449 50.77321289 4.31061523 51.60111328 4.98779297 52.45410156 C8.88384512 57.3834915 12.71363436 62.36470328 16.55541992 67.33642578 C17.1094751 68.05040527 17.66353027 68.76438477 18.234375 69.5 C18.72131836 70.1290625 19.20826172 70.758125 19.70996094 71.40625 C22.05384565 74.30195012 23.53370062 75.31406143 27.125 76.125 C28.40375 76.41375 29.6825 76.7025 31 77 C31 77.66 31 78.32 31 79 C20.77 79 10.54 79 0 79 C0 78.34 0 77.68 0 77 C2.475 76.01 2.475 76.01 5 75 C4.45750693 71.19054832 3.52960918 68.9486235 1.12109375 65.9609375 C0.53271729 65.22061279 -0.05565918 64.48028809 -0.66186523 63.7175293 C-1.28907471 62.94449463 -1.91628418 62.17145996 -2.5625 61.375 C-3.83676767 59.76497962 -5.11020804 58.1543041 -6.3828125 56.54296875 C-8.07375448 54.41762809 -9.76595044 52.29330559 -11.45996094 50.17041016 C-12.63384624 48.68763119 -13.78679084 47.18833596 -14.9375 45.6875 C-15.56527344 44.88699219 -16.19304687 44.08648437 -16.83984375 43.26171875 C-18 41 -18 41 -18.0703125 38.68359375 C-16.45275933 34.62790386 -13.75656274 31.67076127 -10.9375 28.375 C-9.75068186 26.94951493 -8.56578747 25.52242603 -7.3828125 24.09375 C-6.5151123 23.04960937 -6.5151123 23.04960937 -5.62988281 21.984375 C-3.44988434 19.33023666 -1.36379373 16.63024323 0.6875 13.875 C1.28949219 13.06804687 1.89148438 12.26109375 2.51171875 11.4296875 C4.178646 8.7083522 5.10172302 6.05325673 6 3 C3.03 2.505 3.03 2.505 0 2 C0 1.34 0 0.68 0 0 Z " fill="#F7F7F7" transform="translate(176,156)"/>
<path d="M0 0 C4.97632837 9.95265673 -0.96524937 26.12220655 -3.9453125 36.1953125 C-5.89861551 41.69410669 -7.97869626 44.92573241 -13 48 C-15.6875 48.625 -15.6875 48.625 -18 48 C-20.69026117 45.12420358 -20.9963225 43.0380008 -21.375 39.125 C-20.8942334 26.52055402 -17.68307175 9.56346272 -9 0 C-5.88173308 -1.55913346 -3.32926126 -0.66585225 0 0 Z " fill="#040404" transform="translate(331,268)"/>
<path d="M0 0 C0.66 0 1.32 0 2 0 C1.68872484 1.58357459 1.37592711 3.16684993 1.0625 4.75 C0.80146484 6.07257813 0.80146484 6.07257813 0.53515625 7.421875 C0.07631512 9.63235053 -0.43336074 11.81512068 -1 14 C1.31 14 3.62 14 6 14 C6 14.99 6 15.98 6 17 C3.36 17 0.72 17 -2 17 C-2.16326782 18.06553101 -2.16326782 18.06553101 -2.32983398 19.15258789 C-3.57942637 27.00252597 -5.22871162 34.70524876 -7.0625 42.4375 C-7.59564719 44.70689152 -8.12822165 46.97641769 -8.66015625 49.24609375 C-8.89355713 50.23279053 -9.12695801 51.2194873 -9.36743164 52.23608398 C-9.95804072 54.816665 -10.49465071 57.40152654 -11 60 C-7.46399535 58.08864614 -5.21027154 56.37357234 -3 53 C-1.515 53.495 -1.515 53.495 0 54 C-1.43334578 55.62866544 -2.87182979 57.25280994 -4.3125 58.875 C-5.51326172 60.23238281 -5.51326172 60.23238281 -6.73828125 61.6171875 C-9.4828588 64.50871134 -11.03229483 65.92100366 -15.0625 66.25 C-18 66 -18 66 -20 64 C-20.74027373 55.80534198 -18.64988209 48.39864719 -16.625 40.5 C-15.99158167 37.96890154 -15.35875518 35.43765487 -14.7265625 32.90625 C-14.42782227 31.72160156 -14.12908203 30.53695313 -13.82128906 29.31640625 C-12.80802525 25.22479639 -11.88683976 21.12066959 -11 17 C-12.98 17 -14.96 17 -17 17 C-15.84668368 13.54005105 -15.48317904 13.4842629 -12.4375 11.875 C-7.92612776 9.23320544 -4.95396293 5.81031728 -1.6640625 1.79296875 C-1.11492187 1.20128906 -0.56578125 0.60960937 0 0 Z " fill="#F5F5F5" transform="translate(200,252)"/>
<path d="M0 0 C3.28609125 2.66439831 4.9974084 5.64056648 5.59671021 9.89044189 C5.72071587 12.21485733 5.75357325 14.52385784 5.75390625 16.8515625 C5.76711411 17.69923187 5.78032196 18.54690125 5.79393005 19.42025757 C5.83463773 22.11353915 5.85644893 24.80648141 5.875 27.5 C5.89881995 30.20055673 5.92696274 32.90079555 5.96678162 35.60116577 C5.99105939 37.27718009 6.00598235 38.95336277 6.01039124 40.62954712 C5.99058959 46.10118244 5.99058959 46.10118244 8.3125 50.875 C9.7975 51.37 9.7975 51.37 11.3125 51.875 C11.3125 52.535 11.3125 53.195 11.3125 53.875 C4.0525 53.875 -3.2075 53.875 -10.6875 53.875 C-10.6875 53.215 -10.6875 52.555 -10.6875 51.875 C-9.883125 51.400625 -9.07875 50.92625 -8.25 50.4375 C-5.3956924 49.07516328 -5.3956924 49.07516328 -4.6875 45.875 C-4.56691586 43.26325722 -4.49942896 40.67896377 -4.484375 38.06640625 C-4.47867493 37.30327621 -4.47297485 36.54014618 -4.46710205 35.75389099 C-4.45766359 34.14087303 -4.45112265 32.52783589 -4.44726562 30.91479492 C-4.43754934 28.45001618 -4.40651201 25.98606785 -4.375 23.52148438 C-4.36847057 21.95312994 -4.36321986 20.38476956 -4.359375 18.81640625 C-4.3470282 18.08088028 -4.3346814 17.34535431 -4.32196045 16.58753967 C-4.33569356 13.4266894 -4.51043804 11.20207458 -6.02832031 8.39819336 C-7.66936677 6.58960748 -7.66936677 6.58960748 -10.5625 6.5625 C-13.3354821 6.83979821 -15.97638627 7.23709089 -18.6875 7.875 C-15.12637036 0.33378429 -7.95636692 -3.3305722 0 0 Z " fill="#F9F9F9" transform="translate(310.6875,181.125)"/>
<path d="M0 0 C2.25 0.9375 2.25 0.9375 4.25 2.9375 C3.76464511 11.43121052 1.3279049 19.76488395 -0.578125 28.02734375 C-1.93534038 33.99509961 -3.14675831 39.84475891 -3.75 45.9375 C0.16866783 45.35695662 2.32660301 43.53804074 5.25 40.9375 C7.20611903 38.30006265 7.20611903 38.30006265 8.875 35.4375 C10.87407296 32.14490925 12.88299656 28.97874078 15.25 25.9375 C15.58 26.9275 15.91 27.9175 16.25 28.9375 C14.84292548 31.64432979 13.39722486 34.13301118 11.75 36.6875 C11.29165771 37.4088916 10.83331543 38.1302832 10.36108398 38.87353516 C6.40933485 44.95835818 2.31578224 49.89364517 -3.75 53.9375 C-9.95516269 54.49153238 -9.95516269 54.49153238 -12.46484375 52.7421875 C-15.06196253 49.09516964 -13.79513752 44.49296043 -13.17626953 40.27099609 C-11.89089193 33.2345476 -9.95213716 26.32472612 -8.125 19.4140625 C-7.03929961 15.25457945 -6.23111056 11.20735619 -5.75 6.9375 C-6.41 6.9375 -7.07 6.9375 -7.75 6.9375 C-8.41 8.5875 -9.07 10.2375 -9.75 11.9375 C-10.74 11.9375 -11.73 11.9375 -12.75 11.9375 C-6.58788546 -0.14972467 -6.58788546 -0.14972467 0 0 Z " fill="#F4F4F4" transform="translate(214.75,264.0625)"/>
<path d="M0 0 C2.25 0.8125 2.25 0.8125 3.25 1.8125 C4.23987266 13.36735973 1.29293327 21.99274571 -3.6875 32.1875 C-4.02330078 32.87811523 -4.35910156 33.56873047 -4.70507812 34.28027344 C-6.60037667 38.02138014 -8.38883469 41.1701175 -11.75 43.8125 C-14.5 43.5625 -14.5 43.5625 -16.75 42.8125 C-20.1472716 32.62068521 -16.46766006 21.03705839 -12.32421875 11.546875 C-6.13372758 -0.4182087 -6.13372758 -0.4182087 0 0 Z " fill="#060606" transform="translate(268.75,267.1875)"/>
<path d="M0 0 C3.03943283 -0.01775614 6.00487657 0.16213122 9.03320312 0.42089844 C10.5887793 0.50791016 10.5887793 0.50791016 12.17578125 0.59667969 C23.51427593 1.33947125 23.51427593 1.33947125 27.59570312 5.42089844 C27.52154465 9.42545619 27.2471684 11.66764171 24.59570312 14.73339844 C17.7023323 18.61091953 9.38821415 19.43416613 1.59570312 18.42089844 C-1.66921415 17.04208875 -3.90600365 14.91919166 -6.40429688 12.42089844 C-6.90011288 8.7849144 -6.48701758 6.62337896 -5.09570312 3.21777344 C-2.40429688 0.42089844 -2.40429688 0.42089844 0 0 Z " fill="#040404" transform="translate(333.404296875,233.5791015625)"/>
<path d="M0 0 C2.64 0 5.28 0 8 0 C7.01 2.31 6.02 4.62 5 7 C5.61875 6.175 6.2375 5.35 6.875 4.5 C7.57625 3.675 8.2775 2.85 9 2 C9.66 2 10.32 2 11 2 C11.4479312 8.69990707 9.7764357 14.6185724 8.0625 21.0625 C7.50961344 23.17783627 6.95876736 25.29370712 6.41015625 27.41015625 C6.16402588 28.33965088 5.91789551 29.26914551 5.66430664 30.22680664 C4.96725565 33.1366935 4.45930277 36.04407219 4 39 C2.02 39.495 2.02 39.495 0 40 C0.33 39.01 0.66 38.02 1 37 C0.34 36.67 -0.32 36.34 -1 36 C-1.268125 36.598125 -1.53625 37.19625 -1.8125 37.8125 C-3.00987475 40.01819033 -4.04478984 41.43583187 -6 43 C-6.99 43 -7.98 43 -9 43 C-8.36031163 35.10162554 -6.7077231 27.4769786 -4.98876953 19.7590332 C-4.49595927 17.54434092 -4.01115052 15.32800284 -3.52734375 13.11132812 C-1.1433771 2.2867542 -1.1433771 2.2867542 0 0 Z " fill="#080808" transform="translate(198,269)"/>
<path d="M0 0 C3.57574045 5.38489485 4.6369674 9.1421531 4.5 15.5625 C4.51546875 16.29146484 4.5309375 17.02042969 4.546875 17.77148438 C4.50989311 22.90734477 3.44160261 25.97856217 0 30 C-3 30.75 -3 30.75 -6 30 C-10.5373191 24.92936129 -10.58669118 20.48753808 -10.4375 13.875 C-10.44458984 12.98167969 -10.45167969 12.08835938 -10.45898438 11.16796875 C-10.42300697 7.46506392 -10.36978566 4.74179894 -8.703125 1.3984375 C-5.9877473 -0.83116162 -3.36779185 -0.25417297 0 0 Z " fill="#050505" transform="translate(344,184)"/>
<path d="M0 0 C6.875 1.875 6.875 1.875 8 3 C7.91170738 11.14329585 6.07844706 19.05933596 4.1875 26.9375 C3.93935547 28.04673828 3.69121094 29.15597656 3.43554688 30.29882812 C3.18224609 31.36423828 2.92894531 32.42964844 2.66796875 33.52734375 C2.44391357 34.48374756 2.2198584 35.44015137 1.98901367 36.42553711 C0.84739202 39.39724787 -0.62388099 40.92192863 -3 43 C-2.34 41.35 -1.68 39.7 -1 38 C-2.1446875 39.2065625 -2.1446875 39.2065625 -3.3125 40.4375 C-6 43 -6 43 -9 44 C-9.41583249 37.43908731 -7.86165785 31.68975414 -6.1875 25.375 C-5.635862 23.23720006 -5.0850742 21.09918055 -4.53515625 18.9609375 C-4.26977051 17.93709961 -4.00438477 16.91326172 -3.73095703 15.85839844 C-2.3851613 10.59568088 -1.18053863 5.30206822 0 0 Z " fill="#090909" transform="translate(283,268)"/>
<path d="M0 0 C5.52196275 5.6753506 5.09750576 10.49205686 5 18 C0.05 18 -4.9 18 -10 18 C-10.21212884 11.9543282 -10.22203646 6.28014906 -6.6875 1.0625 C-4.22094378 -0.49051688 -2.85706441 -0.55747598 0 0 Z " fill="#080808" transform="translate(221,184)"/>
<path d="M0 0 C1.875 1.1875 1.875 1.1875 3 3 C2.875 6.0625 2.875 6.0625 2 9 C-1.23253796 11.15502531 -2.25150923 11.46856135 -6 11 C-7.8125 9.875 -7.8125 9.875 -9 8 C-9.4375 5 -9.4375 5 -9 2 C-6.13326387 -1.29143778 -4.01983549 -1.44301787 0 0 Z " fill="#EDEDED" transform="translate(269,153)"/>
<path d="M0 0 C2.9375 0.8125 2.9375 0.8125 4.9375 2.8125 C5.26704432 5.91021665 5.39084601 7.98581023 3.875 10.75 C0.75607551 12.46037795 -1.71807801 11.61763863 -5.0625 10.8125 C-6.46185013 8.01379973 -6.31515405 5.90751208 -6.0625 2.8125 C-4.31169972 -0.20276715 -3.50175349 -0.21439307 0 0 Z " fill="#F3F3F3" transform="translate(302.0625,241.1875)"/>
<path d="M0 0 C0.66 0.99 1.32 1.98 2 3 C-0.64 7.29 -3.28 11.58 -6 16 C-6.66 15.67 -7.32 15.34 -8 15 C-6.38102741 11.69918209 -4.64075691 8.47442567 -2.875 5.25 C-2.33617187 4.26515625 -1.79734375 3.2803125 -1.2421875 2.265625 C-0.83226562 1.51796875 -0.42234375 0.7703125 0 0 Z " fill="#DBDBDB" transform="translate(229,290)"/>
<path d="M0 0 C0.66 0.33 1.32 0.66 2 1 C1.484375 1.391875 0.96875 1.78375 0.4375 2.1875 C-0.036875 2.785625 -0.51125 3.38375 -1 4 C-0.76956136 6.65466049 -0.76956136 6.65466049 0 9 C-0.33 8.01 -0.66 7.02 -1 6 C-1.66 6 -2.32 6 -3 6 C-3.66 7.65 -4.32 9.3 -5 11 C-5.99 11 -6.98 11 -8 11 C-5.69281189 6.71522208 -3.67033927 3.27708863 0 0 Z " fill="#D7D7D7" transform="translate(210,265)"/>
<path d="M0 0 C1.31625194 2.63250388 0.74813658 3.80179056 0.0625 6.625 C-0.13214844 7.44226563 -0.32679688 8.25953125 -0.52734375 9.1015625 C-0.76130859 10.04128906 -0.76130859 10.04128906 -1 11 C-1.66 10.34 -2.32 9.68 -3 9 C-3.99 9.495 -3.99 9.495 -5 10 C-3.66511872 6.40608886 -2.03977277 3.24509304 0 0 Z " fill="#363636" transform="translate(230,293)"/>
<path d="M0 0 C0.99 0 1.98 0 3 0 C3 2.64 3 5.28 3 8 C2.01 7.34 1.02 6.68 0 6 C-0.1875 2.875 -0.1875 2.875 0 0 Z " fill="#C9C9C9" transform="translate(136,290)"/>
<path d="M0 0 C0.66 0.33 1.32 0.66 2 1 C0.02 3.97 0.02 3.97 -2 7 C-2.99 6.67 -3.98 6.34 -5 6 C-3.35 4.02 -1.7 2.04 0 0 Z " fill="#DDDDDD" transform="translate(281,305)"/>
</svg>
